<?xml version="1.0" standalone="no"?><!DOCTYPE svg PUBLIC "-//W3C//DTD SVG 1.1//EN" "http://www.w3.org/Graphics/SVG/1.1/DTD/svg11.dtd"><svg height="1024" node-id="1" sillyvg="true" template-height="1024" template-width="1024" version="1.1" viewBox="0 0 1024 1024" width="1024" xmlns="http://www.w3.org/2000/svg" xmlns:xlink="http://www.w3.org/1999/xlink"><defs node-id="137"><clipPath id="clip-辩论" node-id="11"><path d="M 0.00 0.00 L 1024.00 0.00 L 1024.00 1024.00 L 0.00 1024.00 Z" fill="#000000" fill-rule="nonzero" node-id="140" stroke="none" target-height="1024" target-width="1024" target-x="0" target-y="0"></path></clipPath><clipPath id="clip-path_8" node-id="3"><path d="M 56.30 693.60 L 219.40 693.60 L 219.40 734.40 L 193.30 739.80 L 172.30 742.90 L 160.40 744.10 L 148.40 745.00 L 136.10 745.30 L 123.90 745.00 L 112.10 744.10 L 100.70 742.90 L 80.60 739.80 L 72.60 738.20 L 56.30 734.40 Z" fill="#000000" fill-rule="nonzero" id="路径_185" node-id="4" stroke="none" target-height="51.700012" target-width="163.09999" target-x="56.3" target-y="693.6"></path></clipPath><clipPath id="clip-path_7" node-id="3"><path d="M 21.10 743.90 L 184.30 743.90 L 184.30 784.70 L 158.20 790.10 L 137.10 793.20 L 125.30 794.40 L 113.20 795.30 L 100.90 795.60 L 88.70 795.30 L 77.00 794.40 L 65.50 793.20 L 45.40 790.10 L 37.50 788.50 L 21.10 784.70 Z" fill="#000000" fill-rule="nonzero" id="路径_185" node-id="4" stroke="none" target-height="51.69995" target-width="163.2" target-x="21.1" target-y="743.9"></path></clipPath><clipPath id="clip-path_6" node-id="3"><path d="M 74.60 779.00 L 237.70 779.00 L 237.70 819.80 L 211.60 825.20 L 190.50 828.40 L 178.70 829.60 L 166.70 830.40 L 154.40 830.70 L 142.20 830.40 L 130.40 829.60 L 119.00 828.40 L 98.90 825.20 L 90.90 823.70 L 74.60 819.80 Z" fill="#000000" fill-rule="nonzero" id="路径_185" node-id="4" stroke="none" target-height="51.700012" target-width="163.1" target-x="74.6" target-y="779"></path></clipPath><clipPath id="clip-path_5" node-id="3"><path d="M 26.70 817.00 L 189.90 817.00 L 189.90 857.80 L 163.80 863.20 L 142.70 866.30 L 130.90 867.60 L 118.90 868.40 L 106.60 868.70 L 94.40 868.40 L 82.60 867.60 L 71.20 866.30 L 51.10 863.20 L 43.10 861.60 L 26.70 857.80 Z" fill="#000000" fill-rule="nonzero" id="路径_185" node-id="4" stroke="none" target-height="51.700012" target-width="163.2" target-x="26.7" target-y="817"></path></clipPath><clipPath id="clip-path" node-id="3"><path d="M 0.00 0.00 L 163.10 0.00 L 163.10 40.80 L 137.10 46.20 L 116.00 49.30 L 104.20 50.60 L 92.10 51.40 L 79.80 51.70 L 67.60 51.40 L 55.90 50.60 L 44.40 49.30 L 24.30 46.20 L 16.40 44.60 L 0.00 40.80 Z" fill="#000000" fill-rule="nonzero" id="路径_185" node-id="4" stroke="none" target-height="51.7" target-width="163.1" target-x="0" target-y="0"></path></clipPath><clipPath id="clip-path-5" node-id="5"><path d="M 740.40 818.60 L 695.50 854.10 L 771.20 855.40 L 771.20 848.80 L 774.60 848.80 L 774.60 855.40 L 798.10 855.40 L 791.50 813.00 Z" fill="#000000" fill-rule="nonzero" id="路径_226" node-id="6" stroke="none" target-height="42.400024" target-width="102.599976" target-x="695.5" target-y="813"></path></clipPath><clipPath id="clip-path-6" node-id="7"><path d="M 896.20 818.60 L 941.10 854.10 L 865.40 855.40 L 865.40 848.80 L 862.00 848.80 L 862.00 855.40 L 838.50 855.40 L 845.10 813.00 Z" fill="#000000" fill-rule="nonzero" id="路径_226-2" node-id="8" stroke="none" target-height="42.400024" target-width="102.599976" target-x="838.5" target-y="813"></path></clipPath><clipPath id="clip-path-7" node-id="9"><path d="M 795.90 326.50 L 735.90 344.70 L 732.70 345.80 L 729.70 347.30 L 727.00 349.10 L 724.50 351.20 L 722.20 353.60 L 720.30 356.30 L 718.80 359.20 L 717.60 362.40 L 700.90 413.70 L 643.00 392.20 L 623.70 449.20 L 727.20 488.40 L 750.20 447.60 L 751.30 463.50 L 751.10 470.90 L 750.80 474.20 L 750.20 476.40 L 747.80 481.40 L 741.50 491.60 L 766.50 497.80 L 781.20 500.80 L 796.20 503.20 L 803.50 504.00 L 881.70 506.00 L 914.90 492.90 L 978.70 420.60 L 915.60 349.10 L 909.70 345.70 L 904.80 343.30 L 899.30 340.90 L 887.20 337.00 L 881.60 335.70 L 860.60 332.00 L 845.80 328.90 L 831.20 325.30 L 833.00 370.50 L 814.70 429.40 L 802.80 409.30 L 796.50 397.40 L 790.60 385.30 L 788.20 379.40 L 785.50 371.00 L 784.90 366.10 L 785.40 361.50 L 786.30 356.20 L 789.00 345.70 L 792.20 336.10 L 795.90 326.50 Z" fill="#000000" fill-rule="nonzero" id="路径_218" node-id="10" stroke="none" target-height="180.70001" target-width="355" target-x="623.7" target-y="325.3"></path></clipPath></defs><g clip-path="url(#clip-辩论)" id="辩论" node-id="13"><path d="M 0.00 0.00 L 1024.00 0.00 L 1024.00 1024.00 L 0.00 1024.00 Z" fill="#4295f3" fill-opacity="0" fill-rule="nonzero" node-id="157" stroke="none" target-height="1024" target-width="1024" target-x="0" target-y="0"></path><path d="M 264.40 213.70 L 926.80 213.70 L 926.80 611.70 L 264.40 611.70 Z" fill="#dedeff" fill-rule="nonzero" group-id="1" id="矩形_62" node-id="16" stroke="none" target-height="398" target-width="662.4" target-x="264.4" target-y="213.7"></path><path d="M 461.30 430.30 L 492.20 430.30 L 492.20 569.50 L 461.30 569.50 Z" fill="#ff8100" fill-rule="nonzero" group-id="1,9" id="矩形_63" node-id="17" stroke="none" target-height="139.20001" target-width="30.900024" target-x="461.3" target-y="430.3"></path><path d="M 386.80 472.40 L 417.70 472.40 L 417.70 569.50 L 386.80 569.50 Z" fill="#ff8100" fill-rule="nonzero" group-id="1,10" id="矩形_64" node-id="18" stroke="none" target-height="97.100006" target-width="30.900024" target-x="386.8" target-y="472.4"></path><path d="M 558.30 412.00 L 589.30 412.00 L 589.30 569.50 L 558.30 569.50 Z" fill="#ff8100" fill-rule="nonzero" group-id="1,11" id="矩形_65" node-id="19" stroke="none" target-height="157.5" target-width="31" target-x="558.3" target-y="412"></path><path d="M 655.40 390.90 L 686.30 390.90 L 686.30 569.50 L 655.40 569.50 Z" fill="#ff8100" fill-rule="nonzero" group-id="1,12" id="矩形_66" node-id="20" stroke="none" target-height="178.6" target-width="30.899963" target-x="655.4" target-y="390.9"></path><path d="M 745.40 371.20 L 776.30 371.20 L 776.30 569.50 L 745.40 569.50 Z" fill="#ff8100" fill-rule="nonzero" group-id="1,13" id="矩形_67" node-id="21" stroke="none" target-height="198.29999" target-width="30.899963" target-x="745.4" target-y="371.2"></path><path d="M 835.40 307.90 L 866.30 307.90 L 866.30 569.50 L 835.40 569.50 Z" fill="#ff8100" fill-rule="nonzero" group-id="1,14" id="矩形_68" node-id="22" stroke="none" target-height="261.6" target-width="30.899963" target-x="835.4" target-y="307.9"></path><path d="M 301.90 454.10 L 308.00 456.20 L 318.40 458.30 L 325.30 459.00 L 335.30 459.10 L 346.60 457.90 L 352.60 456.60 L 359.00 454.80 L 365.20 452.50 L 371.70 449.50 L 378.40 445.70 L 383.20 442.60 L 393.20 434.80 L 405.50 423.50 L 412.90 417.40 L 420.70 411.80 L 428.80 406.70 L 437.20 402.00 L 445.80 397.70 L 454.70 393.80 L 463.70 390.30 L 476.00 386.10 L 488.50 382.50 L 501.10 379.40 L 526.60 374.60 L 539.20 372.80 L 558.00 370.50 L 589.00 367.50 L 601.90 365.70 L 614.70 363.40 L 627.40 360.70 L 652.40 354.10 L 676.60 346.30 L 692.50 340.40 L 707.80 334.20 L 722.60 327.70 L 737.20 320.80 L 751.00 313.90 L 776.90 299.70 L 799.80 286.00 L 815.60 275.90 L 828.70 267.00 L 849.60 251.80 L 861.20 242.50" fill="none" group-id="1,15,49" id="路径_181" node-id="24" stroke="#65f4e2" stroke-linecap="butt" stroke-width="10" target-height="216.6" target-width="559.30005" target-x="301.9" target-y="242.5"></path><path d="M 583.70 367.70 L 583.30 370.10 L 582.40 372.30 L 581.00 374.10 L 579.10 375.60 L 577.00 376.50 L 574.50 376.80 L 572.10 376.50 L 569.90 375.60 L 568.10 374.10 L 566.60 372.30 L 565.70 370.10 L 565.40 367.70 L 565.70 365.20 L 566.60 363.10 L 568.10 361.20 L 569.90 359.80 L 572.10 358.90 L 574.50 358.50 L 577.00 358.90 L 579.10 359.80 L 581.00 361.20 L 582.40 363.10 L 583.30 365.20 L 583.70 367.70 Z" fill="#4abeae" fill-rule="nonzero" group-id="1,15,50" id="椭圆_39" node-id="25" stroke="none" target-height="18.299988" target-width="18.299988" target-x="565.4" target-y="358.5"></path><path d="M 680.70 349.40 L 680.40 351.80 L 679.40 354.00 L 678.00 355.90 L 676.20 357.30 L 674.00 358.20 L 671.60 358.50 L 669.10 358.20 L 666.90 357.30 L 665.10 355.90 L 663.70 354.00 L 662.70 351.80 L 662.40 349.40 L 662.70 346.90 L 663.70 344.80 L 665.10 342.90 L 666.90 341.50 L 669.10 340.60 L 671.60 340.30 L 674.00 340.60 L 676.20 341.50 L 678.00 342.90 L 679.40 344.80 L 680.40 346.90 L 680.70 349.40 Z" fill="#4abeae" fill-rule="nonzero" group-id="1,15,51" id="椭圆_40" node-id="26" stroke="none" target-height="18.200012" target-width="18.299988" target-x="662.4" target-y="340.3"></path><path d="M 779.10 304.40 L 778.80 306.80 L 777.90 309.00 L 776.50 310.90 L 774.60 312.30 L 772.50 313.20 L 770.00 313.50 L 767.60 313.20 L 765.40 312.30 L 763.50 310.90 L 762.10 309.00 L 761.20 306.80 L 760.90 304.40 L 761.20 301.90 L 762.10 299.80 L 763.50 297.90 L 765.40 296.50 L 767.60 295.60 L 770.00 295.20 L 772.50 295.60 L 774.60 296.50 L 776.50 297.90 L 777.90 299.80 L 778.80 301.90 L 779.10 304.40 Z" fill="#4abeae" fill-rule="nonzero" group-id="1,15,52" id="椭圆_41" node-id="27" stroke="none" target-height="18.299988" target-width="18.199951" target-x="760.9" target-y="295.2"></path><path d="M 482.40 386.00 L 482.10 388.40 L 481.20 390.60 L 479.70 392.40 L 477.90 393.90 L 475.70 394.80 L 473.30 395.10 L 470.80 394.80 L 468.60 393.90 L 466.80 392.40 L 465.40 390.60 L 464.50 388.40 L 464.10 386.00 L 464.50 383.50 L 465.40 381.30 L 466.80 379.50 L 468.60 378.10 L 470.80 377.10 L 473.30 376.80 L 475.70 377.10 L 477.90 378.10 L 479.70 379.50 L 481.20 381.30 L 482.10 383.50 L 482.40 386.00 Z" fill="#4abeae" fill-rule="nonzero" group-id="1,15,53" id="椭圆_43" node-id="28" stroke="none" target-height="18.300018" target-width="18.299988" target-x="464.1" target-y="376.8"></path><path d="M 405.10 436.60 L 404.70 439.00 L 403.80 441.20 L 402.40 443.10 L 400.50 444.50 L 398.40 445.40 L 395.90 445.70 L 393.50 445.40 L 391.30 444.50 L 389.40 443.10 L 388.00 441.20 L 387.10 439.00 L 386.80 436.60 L 387.10 434.10 L 388.00 432.00 L 389.40 430.10 L 391.30 428.70 L 393.50 427.80 L 395.90 427.40 L 398.40 427.80 L 400.50 428.70 L 402.40 430.10 L 403.80 432.00 L 404.70 434.10 L 405.10 436.60 Z" fill="#4abeae" fill-rule="nonzero" group-id="1,15,54" id="椭圆_44" node-id="29" stroke="none" target-height="18.300018" target-width="18.300018" target-x="386.8" target-y="427.4"></path><path d="M 869.20 242.50 L 868.80 245.00 L 867.90 247.10 L 866.50 249.00 L 864.60 250.40 L 862.50 251.30 L 860.00 251.70 L 857.60 251.30 L 855.40 250.40 L 853.50 249.00 L 852.10 247.10 L 851.20 245.00 L 850.90 242.50 L 851.20 240.10 L 852.10 237.90 L 853.50 236.00 L 855.40 234.60 L 857.60 233.70 L 860.00 233.40 L 862.50 233.70 L 864.60 234.60 L 866.50 236.00 L 867.90 237.90 L 868.80 240.10 L 869.20 242.50 Z" fill="#4abeae" fill-rule="nonzero" group-id="1,15,55" id="椭圆_42" node-id="30" stroke="none" target-height="18.300003" target-width="18.299988" target-x="850.9" target-y="233.4"></path><path d="M 340.40 562.50 L 880.40 562.50 L 880.40 569.50 L 340.40 569.50 Z" fill="#c7c5ff" fill-rule="nonzero" group-id="1,16" id="矩形_69" node-id="31" stroke="none" target-height="7" target-width="540" target-x="340.4" target-y="562.5"></path><path d="M 216.80 309.50 L 217.20 310.60 L 217.20 312.80 L 216.10 314.70 L 215.20 315.40 L 185.30 332.70 L 183.10 333.30 L 181.00 332.70 L 180.10 332.00 L 179.40 331.10 L 178.80 328.90 L 179.40 326.80 L 181.00 325.20 L 210.90 308.00 L 212.00 307.50 L 214.10 307.50 L 216.00 308.60 L 216.80 309.50 Z M 216.30 317.30 L 186.40 334.50 L 185.60 335.20 L 184.50 336.90 L 184.20 337.90 L 184.50 339.90 L 185.70 341.50 L 186.90 342.30 L 188.20 342.60 L 189.60 342.50 L 192.60 341.20 L 194.40 341.00 L 196.20 341.30 L 200.90 343.40 L 204.10 343.50 L 205.70 343.10 L 212.70 339.30 L 215.20 337.20 L 216.70 334.30 L 217.20 329.10 L 217.90 327.50 L 218.90 326.00 L 221.50 324.00 L 222.30 322.90 L 222.70 321.60 L 222.70 320.20 L 222.30 319.20 L 221.10 317.60 L 219.20 316.80 L 217.20 316.90 L 216.30 317.30 Z M 132.30 206.40 L 133.20 205.70 L 134.30 203.80 L 134.30 201.60 L 133.90 200.50 L 124.50 184.60 L 122.60 183.50 L 120.50 183.50 L 119.40 184.00 L 117.80 185.60 L 117.20 187.70 L 117.80 189.90 L 127.10 205.70 L 128.00 206.40 L 130.10 207.00 L 132.30 206.40 Z M 100.90 243.50 L 103.20 243.50 L 105.10 242.40 L 105.70 241.50 L 106.30 239.30 L 106.20 238.20 L 105.10 236.30 L 103.10 235.20 L 86.50 230.70 L 85.30 230.50 L 83.20 231.10 L 81.60 232.70 L 81.20 233.70 L 81.00 234.90 L 81.60 237.00 L 83.10 238.60 L 84.20 239.00 Z M 111.80 283.00 L 111.10 282.10 L 109.20 281.00 L 107.00 281.00 L 105.90 281.40 L 90.00 290.80 L 88.90 292.70 L 88.90 294.80 L 89.40 295.90 L 91.00 297.50 L 93.10 298.10 L 95.30 297.50 L 111.10 288.20 L 111.80 287.30 L 112.40 285.20 L 111.80 283.00 Z M 140.50 312.20 L 136.10 328.80 L 136.10 331.10 L 137.20 333.00 L 139.10 334.10 L 141.40 334.10 L 143.30 333.00 L 144.00 332.20 L 148.90 314.40 L 148.90 312.10 L 147.80 310.20 L 146.90 309.60 L 144.70 309.00 L 143.60 309.10 L 141.70 310.20 L 140.50 312.20 Z M 219.80 266.40 L 218.60 266.30 L 216.50 266.80 L 215.00 268.40 L 214.50 269.50 L 214.40 270.60 L 214.90 272.70 L 216.50 274.30 L 217.60 274.70 L 234.20 279.20 L 236.50 279.20 L 238.40 278.10 L 239.00 277.30 L 239.60 275.00 L 239.50 273.90 L 238.40 272.00 L 236.50 270.90 Z M 225.40 212.40 L 210.50 221.00 L 208.90 222.60 L 208.30 224.70 L 208.50 225.80 L 209.60 227.80 L 210.50 228.50 L 212.60 229.10 L 214.80 228.50 L 229.70 219.90 L 231.30 218.30 L 231.90 216.20 L 231.80 215.10 L 230.60 213.00 L 229.70 212.40 L 227.60 211.80 L 225.40 212.40 Z M 178.10 200.40 L 179.00 199.70 L 180.10 197.70 L 184.60 181.10 L 184.60 178.80 L 183.50 176.90 L 181.60 175.80 L 180.40 175.60 L 178.30 176.20 L 176.70 177.80 L 171.80 195.50 L 171.90 198.00 L 173.30 200.00 L 175.70 200.90 L 178.10 200.40 Z M 211.40 300.20 L 211.80 301.30 L 211.80 303.50 L 210.70 305.40 L 209.80 306.10 L 179.90 323.30 L 178.80 323.80 L 176.70 323.90 L 174.70 322.80 L 173.50 320.90 L 173.30 319.80 L 173.90 317.70 L 175.40 316.00 L 172.80 312.90 L 170.20 310.30 L 167.40 308.20 L 163.00 305.50 L 158.40 303.30 L 143.90 297.80 L 139.10 295.60 L 133.10 291.80 L 127.40 286.70 L 124.80 283.40 L 122.20 279.50 L 120.10 275.30 L 118.50 271.00 L 117.30 266.80 L 116.60 262.40 L 116.30 258.00 L 116.40 253.70 L 116.90 249.40 L 117.80 245.20 L 119.10 241.00 L 120.90 237.10 L 122.90 233.30 L 125.40 229.60 L 128.20 226.30 L 131.40 223.20 L 135.00 220.30 L 138.90 217.80 L 143.10 215.70 L 147.30 214.00 L 151.50 212.80 L 155.90 212.10 L 160.30 211.70 L 164.60 211.80 L 168.90 212.30 L 173.20 213.20 L 177.30 214.50 L 181.30 216.20 L 185.10 218.30 L 188.70 220.80 L 192.10 223.60 L 195.20 226.70 L 198.10 230.30 L 200.60 234.20 L 202.80 238.40 L 204.30 242.30 L 205.30 246.00 L 206.20 253.40 L 205.60 262.10 L 203.20 277.40 L 202.80 282.50 L 202.90 287.70 L 203.40 291.20 L 204.30 294.70 L 205.70 298.50 L 207.30 298.10 L 208.90 298.20 L 210.30 299.00 L 211.40 300.20 Z M 136.20 233.00 L 135.10 232.50 L 133.80 232.40 L 132.70 232.80 L 131.70 233.60 L 129.40 236.90 L 127.50 240.30 L 124.90 247.60 L 123.80 255.20 L 123.80 259.10 L 124.20 263.00 L 125.10 266.90 L 125.70 268.00 L 126.60 268.90 L 127.80 269.20 L 129.10 269.20 L 130.70 268.10 L 131.20 267.30 L 131.30 265.20 L 130.60 261.50 L 130.20 257.90 L 130.30 254.30 L 130.80 250.70 L 131.70 247.20 L 133.00 243.90 L 137.40 236.40 L 137.40 235.20 L 137.10 234.00 L 136.20 233.00 Z" fill="#ffda50" fill-rule="nonzero" group-id="2" id="灯泡" node-id="32" stroke="none" target-height="167.9" target-width="158.6" target-x="81" target-y="175.6"></path><path d="M 973.90 539.90 L 977.00 541.40 L 979.90 543.50 L 982.80 546.40 L 985.70 550.10 L 988.00 554.00 L 990.20 558.50 L 992.30 563.80 L 994.20 569.80 L 997.00 582.30 L 998.80 597.10 L 999.40 607.30 L 999.30 618.30 L 998.70 630.10 L 996.60 647.80 L 995.00 657.10 L 990.60 676.10 L 987.80 685.60 L 980.80 705.00 L 975.30 717.70 L 969.60 729.80 L 963.60 741.20 L 957.10 752.30 L 950.40 762.50 L 943.70 771.90 L 936.60 781.00 L 929.50 789.00 L 922.40 796.20 L 916.80 801.30 L 906.00 809.50 L 900.80 812.80 L 895.30 815.80 L 890.00 818.00 L 884.90 819.70 L 880.00 820.80 L 876.00 821.20 L 872.10 821.30 L 868.40 820.90 L 864.70 820.10 L 861.20 819.00 L 857.80 817.30 L 854.70 815.40 L 851.80 813.10 L 849.00 810.30 L 846.40 807.20 L 843.60 803.00 L 841.10 798.30 L 838.90 793.00 L 837.00 787.00 L 835.50 781.10 L 833.50 767.60 L 833.00 760.00 L 832.90 750.00 L 833.40 739.30 L 834.50 727.80 L 836.20 716.40 L 838.60 704.40 L 841.60 691.90 L 845.20 679.50 L 849.40 666.90 L 854.30 653.90 L 862.80 635.10 L 867.40 626.40 L 877.40 609.80 L 882.60 602.00 L 893.40 588.00 L 901.10 579.10 L 908.60 571.30 L 916.00 564.40 L 927.60 555.10 L 938.30 548.10 L 943.80 545.10 L 949.00 542.70 L 953.80 540.90 L 958.20 539.70 L 962.90 538.90 L 967.00 538.70 L 970.70 539.00 L 973.90 539.90 Z" fill="#ff6651" fill-rule="nonzero" group-id="3,17" id="路径_182" node-id="34" stroke="none" target-height="282.59998" target-width="166.5" target-x="832.9" target-y="538.7"></path><path d="M 905.80 850.40 L 904.20 848.40 L 902.90 846.00 L 902.00 842.80 L 901.40 838.90 L 901.30 835.10 L 902.30 826.00 L 903.50 820.50 L 905.50 813.50 L 908.30 805.80 L 912.00 797.50 L 916.10 789.40 L 921.00 781.00 L 926.70 772.30 L 936.30 759.80 L 947.70 747.40 L 957.90 737.50 L 967.60 728.80 L 977.00 721.20 L 984.30 715.70 L 991.40 711.10 L 998.00 707.20 L 1004.40 704.00 L 1009.80 701.80 L 1015.00 700.10 L 1019.90 698.90 L 1024.70 698.30 L 1029.20 698.10 L 1033.80 698.40 L 1038.20 699.30 L 1042.50 700.80 L 1046.60 702.90 L 1050.70 705.60 L 1053.60 708.10 L 1056.00 710.90 L 1057.90 713.80 L 1059.30 716.80 L 1060.20 720.10 L 1060.80 724.20 L 1060.70 728.70 L 1060.10 733.60 L 1058.80 738.90 L 1057.00 743.90 L 1051.90 754.80 L 1048.40 760.70 L 1043.40 768.30 L 1037.70 776.20 L 1024.20 792.40 L 1008.90 808.60 L 996.50 819.90 L 984.00 829.40 L 975.40 835.10 L 967.10 840.00 L 959.00 844.00 L 950.70 847.60 L 943.10 850.40 L 936.20 852.40 L 930.70 853.60 L 921.50 854.60 L 917.70 854.50 L 913.70 854.00 L 910.50 853.10 L 907.90 851.90 L 905.80 850.40 Z" fill="#52d0c7" fill-rule="nonzero" group-id="3,18" id="路径_183" node-id="35" stroke="none" target-height="156.5" target-width="159.50006" target-x="901.3" target-y="698.1"></path><path d="M 6.00 681.60 L 8.30 680.50 L 11.00 679.80 L 14.20 679.60 L 17.90 680.00 L 21.50 680.70 L 29.80 683.60 L 34.60 685.80 L 40.60 689.20 L 47.00 693.40 L 53.70 698.60 L 60.10 704.10 L 66.60 710.40 L 73.10 717.50 L 79.10 725.00 L 85.00 733.20 L 90.50 742.10 L 95.50 751.30 L 99.90 760.30 L 103.60 769.10 L 106.80 778.10 L 109.40 786.60 L 111.30 794.70 L 112.70 802.90 L 113.40 810.30 L 113.50 817.10 L 113.10 822.20 L 112.40 826.80 L 111.40 830.90 L 110.00 834.60 L 108.20 838.10 L 106.00 841.10 L 103.50 843.60 L 100.70 845.60 L 97.50 847.00 L 94.10 848.00 L 90.50 848.40 L 86.50 848.20 L 82.70 847.50 L 78.60 846.40 L 74.20 844.70 L 69.60 842.40 L 63.80 839.00 L 57.70 834.60 L 51.30 829.30 L 45.30 823.60 L 39.20 817.20 L 33.00 809.90 L 27.20 802.20 L 21.60 794.00 L 16.10 785.00 L 9.00 771.20 L 3.60 757.80 L 0.70 748.60 L -1.50 739.90 L -3.00 731.70 L -4.00 723.30 L -4.50 715.80 L -4.40 708.90 L -4.00 703.70 L -2.30 695.00 L -1.20 691.50 L 0.40 688.00 L 2.10 685.20 L 4.00 683.10 L 6.00 681.60 Z" fill="#ff6651" fill-rule="nonzero" group-id="4,19" id="路径_186" node-id="37" stroke="none" target-height="168.80005" target-width="118" target-x="-4.5" target-y="679.6"></path><path d="M 26.70 817.00 L 189.90 817.00 L 189.90 857.80 L 163.80 863.20 L 142.70 866.30 L 130.90 867.60 L 118.90 868.40 L 106.60 868.70 L 94.40 868.40 L 82.60 867.60 L 71.20 866.30 L 51.10 863.20 L 43.10 861.60 L 26.70 857.80 Z" fill="#ff8d00" fill-rule="nonzero" group-id="4,20,56" id="路径_184" node-id="39" stroke="none" target-height="51.700012" target-width="163.2" target-x="26.7" target-y="817"></path><g clip-path="url(#clip-path_5)" group-id="4,20,57" id="蒙版组_10" node-id="40"><path d="M 38.70 824.70 L 38.70 862.70" fill="none" group-id="4,20,57,91" id="直线_2" node-id="41" stroke="#ffab1a" stroke-linecap="butt" stroke-width="2" target-height="38" target-width="0" target-x="38.7" target-y="824.7"></path><path d="M 59.80 829.00 L 59.80 866.90" fill="none" group-id="4,20,57,92" id="直线_3" node-id="42" stroke="#ffab1a" stroke-linecap="butt" stroke-width="2" target-height="37.900024" target-width="0" target-x="59.8" target-y="829"></path><path d="M 85.10 833.20 L 85.10 871.20" fill="none" group-id="4,20,57,93" id="直线_4" node-id="43" stroke="#ffab1a" stroke-linecap="butt" stroke-width="2" target-height="38" target-width="0" target-x="85.1" target-y="833.2"></path><path d="M 110.40 833.20 L 110.40 871.20" fill="none" group-id="4,20,57,94" id="直线_5" node-id="44" stroke="#ffab1a" stroke-linecap="butt" stroke-width="2" target-height="38" target-width="0" target-x="110.4" target-y="833.2"></path><path d="M 159.60 830.70 L 159.60 868.70" fill="none" group-id="4,20,57,95" id="直线_6" node-id="45" stroke="#ffab1a" stroke-linecap="butt" stroke-width="2" target-height="38" target-width="0" target-x="159.6" target-y="830.7"></path><path d="M 180.70 824.70 L 180.70 862.70" fill="none" group-id="4,20,57,96" id="直线_7" node-id="46" stroke="#ffab1a" stroke-linecap="butt" stroke-width="2" target-height="38" target-width="0" target-x="180.7" target-y="824.7"></path></g><path d="M 189.90 819.10 L 189.60 820.40 L 189.00 821.80 L 187.70 823.20 L 182.90 826.20 L 174.10 829.50 L 166.30 831.50 L 156.50 833.30 L 146.00 834.70 L 134.10 835.80 L 121.70 836.50 L 108.30 836.70 L 94.90 836.50 L 82.50 835.80 L 70.60 834.70 L 60.10 833.30 L 50.30 831.50 L 42.50 829.50 L 33.70 826.20 L 28.90 823.20 L 27.70 821.80 L 27.00 820.40 L 26.70 819.10 L 27.00 817.80 L 27.70 816.50 L 28.90 815.10 L 30.90 813.60 L 37.50 810.40 L 42.50 808.70 L 50.30 806.80 L 60.10 804.90 L 70.60 803.50 L 82.50 802.40 L 94.90 801.80 L 108.30 801.50 L 121.70 801.80 L 134.10 802.40 L 146.00 803.50 L 156.50 804.90 L 166.30 806.80 L 174.10 808.70 L 182.90 812.00 L 187.70 815.10 L 189.00 816.50 L 189.60 817.80 L 189.90 819.10 Z" fill="#ffce23" fill-rule="nonzero" group-id="4,20" id="椭圆_45" node-id="47" stroke="none" target-height="35.200012" target-width="163.2" target-x="26.7" target-y="801.5"></path><path d="M 74.60 779.00 L 237.70 779.00 L 237.70 819.80 L 211.60 825.20 L 190.50 828.40 L 178.70 829.60 L 166.70 830.40 L 154.40 830.70 L 142.20 830.40 L 130.40 829.60 L 119.00 828.40 L 98.90 825.20 L 90.90 823.70 L 74.60 819.80 Z" fill="#ff8d00" fill-rule="nonzero" group-id="4,21,58" id="路径_184-2" node-id="49" stroke="none" target-height="51.700012" target-width="163.1" target-x="74.6" target-y="779"></path><g clip-path="url(#clip-path_6)" group-id="4,21,59" id="蒙版组_10-2" node-id="50"><path d="M 86.50 786.80 L 86.50 824.70" fill="none" group-id="4,21,59,97" id="直线_2-2" node-id="51" stroke="#ffab1a" stroke-linecap="butt" stroke-width="2" target-height="37.900024" target-width="0" target-x="86.5" target-y="786.8"></path><path d="M 107.60 791.00 L 107.60 829.00" fill="none" group-id="4,21,59,98" id="直线_3-2" node-id="52" stroke="#ffab1a" stroke-linecap="butt" stroke-width="2" target-height="38" target-width="0" target-x="107.6" target-y="791"></path><path d="M 132.90 795.20 L 132.90 833.20" fill="none" group-id="4,21,59,99" id="直线_4-2" node-id="53" stroke="#ffab1a" stroke-linecap="butt" stroke-width="2" target-height="38" target-width="0" target-x="132.9" target-y="795.2"></path><path d="M 158.20 795.20 L 158.20 833.20" fill="none" group-id="4,21,59,100" id="直线_5-2" node-id="54" stroke="#ffab1a" stroke-linecap="butt" stroke-width="2" target-height="38" target-width="0" target-x="158.2" target-y="795.2"></path><path d="M 207.50 792.80 L 207.50 830.70" fill="none" group-id="4,21,59,101" id="直线_6-2" node-id="55" stroke="#ffab1a" stroke-linecap="butt" stroke-width="2" target-height="37.900024" target-width="0" target-x="207.5" target-y="792.8"></path><path d="M 228.60 786.80 L 228.60 824.70" fill="none" group-id="4,21,59,102" id="直线_7-2" node-id="56" stroke="#ffab1a" stroke-linecap="butt" stroke-width="2" target-height="37.900024" target-width="0" target-x="228.6" target-y="786.8"></path></g><path d="M 237.70 781.10 L 237.50 782.50 L 236.80 783.80 L 235.50 785.20 L 230.70 788.30 L 222.00 791.50 L 214.10 793.50 L 204.30 795.30 L 193.90 796.70 L 181.90 797.80 L 169.50 798.50 L 156.10 798.70 L 142.70 798.50 L 130.30 797.80 L 118.40 796.70 L 108.00 795.30 L 98.10 793.50 L 90.30 791.50 L 81.50 788.30 L 76.70 785.20 L 75.50 783.80 L 74.80 782.50 L 74.60 781.10 L 74.80 779.80 L 75.50 778.50 L 76.70 777.10 L 78.70 775.60 L 85.30 772.40 L 90.30 770.80 L 98.10 768.80 L 108.00 767.00 L 118.40 765.60 L 130.30 764.50 L 142.70 763.80 L 156.10 763.60 L 169.50 763.80 L 181.90 764.50 L 193.90 765.60 L 204.30 767.00 L 214.10 768.80 L 222.00 770.80 L 230.70 774.00 L 235.50 777.10 L 236.80 778.50 L 237.50 779.80 L 237.70 781.10 Z" fill="#ffce23" fill-rule="nonzero" group-id="4,21" id="椭圆_45-2" node-id="57" stroke="none" target-height="35.100037" target-width="163.1" target-x="74.6" target-y="763.6"></path><path d="M 21.10 743.90 L 184.30 743.90 L 184.30 784.70 L 158.20 790.10 L 137.10 793.20 L 125.30 794.40 L 113.20 795.30 L 100.90 795.60 L 88.70 795.30 L 77.00 794.40 L 65.50 793.20 L 45.40 790.10 L 37.50 788.50 L 21.10 784.70 Z" fill="#ff8d00" fill-rule="nonzero" group-id="4,22,60" id="路径_184-3" node-id="59" stroke="none" target-height="51.69995" target-width="163.2" target-x="21.1" target-y="743.9"></path><g clip-path="url(#clip-path_7)" group-id="4,22,61" id="蒙版组_10-3" node-id="60"><path d="M 33.10 751.60 L 33.10 789.60" fill="none" group-id="4,22,61,103" id="直线_2-3" node-id="61" stroke="#ffab1a" stroke-linecap="butt" stroke-width="2" target-height="38" target-width="0" target-x="33.1" target-y="751.6"></path><path d="M 54.20 755.80 L 54.20 793.80" fill="none" group-id="4,22,61,104" id="直线_3-3" node-id="62" stroke="#ffab1a" stroke-linecap="butt" stroke-width="2" target-height="38" target-width="0" target-x="54.2" target-y="755.8"></path><path d="M 79.50 760.00 L 79.50 798.00" fill="none" group-id="4,22,61,105" id="直线_4-3" node-id="63" stroke="#ffab1a" stroke-linecap="butt" stroke-width="2" target-height="38" target-width="0" target-x="79.5" target-y="760"></path><path d="M 104.80 760.00 L 104.80 798.00" fill="none" group-id="4,22,61,106" id="直线_5-3" node-id="64" stroke="#ffab1a" stroke-linecap="butt" stroke-width="2" target-height="38" target-width="0" target-x="104.8" target-y="760"></path><path d="M 154.00 757.60 L 154.00 795.60" fill="none" group-id="4,22,61,107" id="直线_6-3" node-id="65" stroke="#ffab1a" stroke-linecap="butt" stroke-width="2" target-height="38" target-width="0" target-x="154" target-y="757.6"></path><path d="M 175.10 751.60 L 175.10 789.60" fill="none" group-id="4,22,61,108" id="直线_7-3" node-id="66" stroke="#ffab1a" stroke-linecap="butt" stroke-width="2" target-height="38" target-width="0" target-x="175.1" target-y="751.6"></path></g><path d="M 184.30 746.00 L 184.00 747.30 L 183.30 748.60 L 182.10 750.00 L 177.30 753.10 L 168.50 756.40 L 160.70 758.30 L 150.90 760.20 L 140.40 761.60 L 128.50 762.70 L 116.10 763.30 L 102.70 763.60 L 89.30 763.30 L 76.90 762.70 L 65.00 761.60 L 54.50 760.20 L 44.70 758.30 L 36.90 756.40 L 28.10 753.10 L 23.30 750.00 L 22.00 748.60 L 21.40 747.30 L 21.10 746.00 L 21.40 744.70 L 22.00 743.30 L 23.30 741.90 L 25.30 740.40 L 31.90 737.20 L 36.90 735.60 L 44.70 733.60 L 54.50 731.80 L 65.00 730.40 L 76.90 729.30 L 89.30 728.60 L 102.70 728.40 L 116.10 728.60 L 128.50 729.30 L 140.40 730.40 L 150.90 731.80 L 160.70 733.60 L 168.50 735.60 L 177.30 738.90 L 182.10 741.90 L 183.30 743.30 L 184.00 744.70 L 184.30 746.00 Z" fill="#ffce23" fill-rule="nonzero" group-id="4,22" id="椭圆_45-3" node-id="67" stroke="none" target-height="35.19995" target-width="163.2" target-x="21.1" target-y="728.4"></path><path d="M 56.30 693.60 L 219.40 693.60 L 219.40 734.40 L 193.30 739.80 L 172.30 742.90 L 160.40 744.10 L 148.40 745.00 L 136.10 745.30 L 123.90 745.00 L 112.10 744.10 L 100.70 742.90 L 80.60 739.80 L 72.60 738.20 L 56.30 734.40 Z" fill="#ff8d00" fill-rule="nonzero" group-id="4,23,62" id="路径_184-4" node-id="69" stroke="none" target-height="51.700012" target-width="163.09999" target-x="56.3" target-y="693.6"></path><g clip-path="url(#clip-path_8)" group-id="4,23,63" id="蒙版组_10-4" node-id="70"><path d="M 68.20 701.30 L 68.20 739.30" fill="none" group-id="4,23,63,109" id="直线_2-4" node-id="71" stroke="#ffab1a" stroke-linecap="butt" stroke-width="2" target-height="38" target-width="0" target-x="68.2" target-y="701.3"></path><path d="M 89.30 705.50 L 89.30 743.50" fill="none" group-id="4,23,63,110" id="直线_3-4" node-id="72" stroke="#ffab1a" stroke-linecap="butt" stroke-width="2" target-height="38" target-width="0" target-x="89.3" target-y="705.5"></path><path d="M 114.60 709.80 L 114.60 747.70" fill="none" group-id="4,23,63,111" id="直线_4-4" node-id="73" stroke="#ffab1a" stroke-linecap="butt" stroke-width="2" target-height="37.900024" target-width="0" target-x="114.6" target-y="709.8"></path><path d="M 140.00 709.80 L 140.00 747.70" fill="none" group-id="4,23,63,112" id="直线_5-4" node-id="74" stroke="#ffab1a" stroke-linecap="butt" stroke-width="2" target-height="37.900024" target-width="0" target-x="140" target-y="709.8"></path><path d="M 189.20 707.30 L 189.20 745.30" fill="none" group-id="4,23,63,113" id="直线_6-4" node-id="75" stroke="#ffab1a" stroke-linecap="butt" stroke-width="2" target-height="38" target-width="0" target-x="189.2" target-y="707.3"></path><path d="M 210.30 701.30 L 210.30 739.30" fill="none" group-id="4,23,63,114" id="直线_7-4" node-id="76" stroke="#ffab1a" stroke-linecap="butt" stroke-width="2" target-height="38" target-width="0" target-x="210.3" target-y="701.3"></path></g><path d="M 219.40 695.70 L 219.20 697.00 L 218.50 698.30 L 217.20 699.70 L 212.40 702.80 L 203.70 706.10 L 195.80 708.10 L 186.00 709.90 L 175.60 711.30 L 163.60 712.40 L 151.30 713.00 L 137.80 713.30 L 124.40 713.00 L 112.10 712.40 L 100.10 711.30 L 89.70 709.90 L 79.80 708.10 L 72.00 706.10 L 63.30 702.80 L 58.50 699.70 L 57.20 698.30 L 56.50 697.00 L 56.30 695.70 L 56.50 694.40 L 57.20 693.00 L 58.50 691.60 L 63.30 688.60 L 72.00 685.30 L 79.80 683.30 L 89.70 681.50 L 100.10 680.10 L 112.10 679.00 L 124.40 678.30 L 137.80 678.10 L 151.30 678.30 L 163.60 679.00 L 175.60 680.10 L 186.00 681.50 L 195.80 683.30 L 203.70 685.30 L 212.40 688.60 L 217.20 691.60 L 218.50 693.00 L 219.20 694.40 L 219.40 695.70 Z" fill="#ffce23" fill-rule="nonzero" group-id="4,23" id="椭圆_45-4" node-id="77" stroke="none" target-height="35.200012" target-width="163.09999" target-x="56.3" target-y="678.1"></path><path d="M 239.10 662.20 L 231.90 697.40 L 207.60 821.30 L 185.10 837.60 L 226.90 834.10 L 241.10 825.20 L 239.10 816.00 L 302.20 665.80 Z" fill="#ffd2cf" fill-rule="nonzero" group-id="5,24,64" id="路径_200" node-id="80" stroke="none" target-height="175.39996" target-width="117.100006" target-x="185.1" target-y="662.2"></path><path d="M 185.10 835.90 L 243.50 820.20 L 245.70 836.80 L 246.00 843.50 L 245.40 846.40 L 244.10 847.70 L 242.70 851.70 L 241.90 860.40 L 228.20 860.20 L 227.50 848.30 L 151.60 866.10 Z" fill="#21114c" fill-rule="nonzero" group-id="5,24,65" id="路径_201" node-id="81" stroke="none" target-height="45.899963" target-width="94.399994" target-x="151.6" target-y="820.2"></path><path d="M 346.70 664.40 L 350.10 829.40 L 407.60 842.40 L 383.20 822.10 L 406.70 643.40 Z" fill="#ffd2cf" fill-rule="nonzero" group-id="5,24,66" id="路径_202" node-id="82" stroke="none" target-height="199" target-width="60.899994" target-x="346.7" target-y="643.4"></path><path d="M 345.80 822.40 L 357.90 826.00 L 406.40 842.00 L 428.30 862.00 L 358.30 849.00 L 359.50 864.50 L 350.10 864.50 L 350.10 847.20 L 348.40 845.10 L 346.50 839.80 L 345.80 835.20 L 345.50 829.90 L 345.80 822.40 Z" fill="#21114c" fill-rule="nonzero" group-id="5,24,67" id="路径_203" node-id="83" stroke="none" target-height="42.099976" target-width="82.79999" target-x="345.5" target-y="822.4"></path><path d="M 290.20 476.10 L 229.00 668.10 L 262.60 671.40 L 283.10 672.70 L 304.70 673.40 L 325.30 672.90 L 334.80 672.10 L 342.80 670.80 L 353.40 668.40 L 363.70 665.60 L 373.70 662.50 L 391.30 656.20 L 412.70 647.10 L 414.10 611.10 L 414.50 589.20 L 414.40 566.20 L 413.50 544.30 L 412.60 534.30 L 410.50 520.50 L 408.30 513.20 L 404.80 506.00 L 400.90 499.20 L 396.70 492.70 L 388.40 481.50 L 376.90 468.40 Z" fill="#341054" fill-rule="nonzero" group-id="5,25,68" id="路径_196" node-id="85" stroke="none" target-height="205.00003" target-width="185.5" target-x="229" target-y="468.4"></path><path d="M 294.50 475.80 L 255.70 670.50 L 263.30 671.70 L 301.60 475.80 Z" fill="#f5ae48" fill-rule="nonzero" group-id="5,25,69" id="路径_197" node-id="86" stroke="none" target-height="195.90002" target-width="45.90001" target-x="255.7" target-y="475.8"></path><path d="M 309.00 474.10 L 269.70 670.50 L 277.40 671.70 L 316.10 474.00 Z" fill="#f5ae48" fill-rule="nonzero" group-id="5,25,70" id="路径_198" node-id="87" stroke="none" target-height="197.70001" target-width="46.399994" target-x="269.7" target-y="474"></path><path d="M 291.30 473.20 L 290.20 477.50 L 378.60 472.00 L 376.60 468.60 Z" fill="#f5ae48" fill-rule="nonzero" group-id="5,25,71" id="路径_195" node-id="88" stroke="none" target-height="8.899994" target-width="88.399994" target-x="290.2" target-y="468.6"></path><path d="M 385.40 517.50 L 385.10 520.30 L 384.40 522.90 L 383.30 525.30 L 381.70 527.40 L 379.90 529.30 L 377.70 530.80 L 375.30 532.00 L 372.70 532.70 L 369.90 532.90 L 367.10 532.70 L 364.50 532.00 L 362.10 530.80 L 359.90 529.30 L 358.10 527.40 L 356.50 525.30 L 355.40 522.90 L 354.70 520.30 L 354.40 517.50 L 354.70 514.60 L 355.40 512.00 L 356.50 509.60 L 358.10 507.50 L 359.90 505.60 L 362.10 504.10 L 364.50 503.00 L 367.10 502.20 L 369.90 502.00 L 372.70 502.20 L 375.30 503.00 L 377.70 504.10 L 379.90 505.60 L 381.70 507.50 L 383.30 509.60 L 384.40 512.00 L 385.10 514.60 L 385.40 517.50 Z" fill="#0033b5" fill-rule="nonzero" group-id="5,25,72" id="椭圆_46" node-id="89" stroke="none" target-height="30.900024" target-width="31" target-x="354.4" target-y="502"></path><path d="M 309.30 598.50 L 336.00 608.30 L 320.80 650.70 L 294.20 640.60 Z" fill="#ffd300" fill-rule="nonzero" group-id="5,25,73" id="路径_199" node-id="90" stroke="none" target-height="52.200012" target-width="41.799988" target-x="294.2" target-y="598.5"></path><path d="M 385.40 576.50 L 409.30 576.50 L 409.30 620.10 L 385.40 620.10 Z" fill="#d70000" fill-rule="nonzero" group-id="5,25,74" id="矩形_71" node-id="91" stroke="none" target-height="43.599976" target-width="23.899994" target-x="385.4" target-y="576.5"></path><path d="M 299.20 325.30 L 299.70 315.30 L 301.30 306.40 L 302.20 303.40 L 304.70 298.00 L 306.30 295.70 L 308.20 293.90 L 310.40 292.50 L 314.20 290.80 L 327.40 285.90 L 335.80 283.10 L 345.50 280.50 L 353.70 280.00 L 356.70 280.30 L 359.70 281.20 L 361.50 282.10 L 363.10 283.40 L 364.50 285.10 L 365.40 287.10 L 366.00 289.60 L 366.20 293.00 L 365.30 309.80 L 366.20 313.70 L 367.00 314.90 L 368.50 316.20 L 375.10 320.30 L 379.70 324.00 L 381.60 326.30 L 383.30 330.00 L 383.70 332.30 L 383.50 337.50 L 381.70 342.20 L 378.80 346.80 L 376.90 350.50 L 376.70 354.00 L 377.20 355.80 L 378.10 357.40 L 379.40 358.80 L 381.80 360.70 L 391.00 366.20 L 393.90 368.40 L 396.30 371.00 L 397.90 373.60 L 399.40 377.00 L 400.50 380.70 L 401.20 387.50 L 400.50 393.00 L 399.70 395.70 L 398.40 398.20 L 396.80 400.60 L 394.70 402.60 L 392.20 404.50 L 389.00 406.10 L 385.30 407.30 L 381.80 408.00 L 378.60 408.20 L 375.50 407.90 L 372.50 407.10 L 369.70 405.90 L 366.90 404.20 L 364.20 402.00 L 361.40 399.10 L 358.60 395.60 L 357.60 393.70 L 354.20 381.90 L 352.00 376.50 L 350.60 374.70 L 345.10 370.10 L 343.10 368.90 L 339.20 367.30 L 335.70 367.30 L 330.60 369.50 L 328.60 369.50 L 325.70 370.30 L 308.30 377.40 L 289.00 386.30 L 283.70 381.00 L 281.50 378.50 L 277.10 372.10 L 274.50 366.00 L 273.80 361.00 L 274.10 358.60 L 274.80 356.40 L 275.90 354.50 L 278.20 352.00 L 281.10 349.80 L 293.30 343.40 L 295.90 341.40 L 297.40 338.50 L 298.00 336.00 L 298.80 331.00 L 299.20 325.30 Z" fill="#341054" fill-rule="nonzero" group-id="5,26,75" id="路径_188" node-id="93" stroke="none" target-height="128.20001" target-width="127.400024" target-x="273.8" target-y="280"></path><path d="M 236.40 411.80 L 218.90 428.30 L 209.40 438.00 L 200.60 448.10 L 196.90 453.00 L 194.20 457.20 L 190.80 463.40 L 188.30 469.30 L 187.00 473.20 L 186.30 477.10 L 186.00 481.00 L 186.80 486.80 L 187.70 489.80 L 190.80 495.90 L 195.70 502.40 L 199.20 506.00 L 202.60 508.80 L 206.30 511.30 L 210.40 513.50 L 219.20 516.80 L 231.10 519.70 L 238.10 520.70 L 261.60 522.70 L 267.60 523.50 L 269.70 524.60 L 271.30 525.70 L 275.60 529.60 L 277.50 530.70 L 279.80 531.40 L 283.30 531.70 L 287.70 531.20 L 291.10 529.30 L 295.40 524.90 L 296.40 524.20 L 299.30 523.50 L 301.80 523.70 L 307.00 525.50 L 311.70 528.30 L 316.50 532.10 L 317.70 532.20 L 318.90 531.90 L 319.90 531.20 L 320.70 529.40 L 320.70 528.10 L 320.10 526.20 L 317.70 523.10 L 315.20 521.30 L 318.60 521.10 L 320.70 520.00 L 321.30 518.90 L 321.80 517.20 L 321.80 515.30 L 321.30 513.50 L 320.60 512.40 L 319.50 511.50 L 316.00 510.00 L 316.10 509.70 L 319.10 507.20 L 319.60 506.00 L 319.80 504.30 L 319.40 503.10 L 318.60 502.20 L 317.60 501.50 L 314.70 500.70 L 314.30 497.20 L 313.90 495.70 L 312.90 494.20 L 310.40 492.70 L 308.20 492.10 L 303.70 492.00 L 301.60 492.50 L 298.70 493.80 L 293.80 497.20 L 289.70 501.00 L 288.70 501.40 L 285.60 501.70 L 280.80 501.00 L 277.60 498.70 L 264.90 487.60 L 258.10 481.20 L 251.30 473.90 L 251.00 473.20 L 250.90 469.70 L 251.70 467.50 L 276.30 448.30 Z" fill="#ffd2cf" fill-rule="nonzero" group-id="5,26,76" id="路径_191" node-id="94" stroke="none" target-height="120.400024" target-width="135.79999" target-x="186" target-y="411.8"></path><path d="M 314.40 338.20 L 313.70 368.00 L 306.30 376.00 L 327.00 387.50 L 340.90 383.10 L 336.10 373.00 L 335.10 350.10 Z" fill="#f3bdbc" fill-rule="nonzero" group-id="5,26,77" id="路径_189" node-id="95" stroke="none" target-height="49.299988" target-width="34.600006" target-x="306.3" target-y="338.2"></path><path d="M 387.50 425.30 L 404.00 432.00 L 411.30 434.60 L 416.00 435.80 L 421.90 435.90 L 432.70 435.50 L 439.20 434.70 L 446.30 433.40 L 455.70 430.60 L 460.40 428.60 L 464.80 426.20 L 469.00 423.40 L 472.80 420.10 L 475.70 417.00 L 481.40 409.10 L 485.30 402.50 L 492.40 387.80 L 505.70 355.00 L 507.70 350.60 L 509.20 348.20 L 512.50 344.70 L 516.00 341.90 L 523.00 337.70 L 529.00 335.00 L 542.50 330.70 L 548.00 328.10 L 551.80 325.10 L 552.80 323.70 L 553.50 321.40 L 553.30 320.30 L 552.00 318.70 L 548.50 317.40 L 547.90 316.50 L 549.10 314.50 L 552.50 311.40 L 552.70 310.10 L 552.30 308.10 L 550.90 306.50 L 549.70 306.10 L 546.70 306.40 L 545.40 305.90 L 543.90 301.70 L 542.80 300.70 L 540.00 300.50 L 538.90 300.90 L 538.00 301.60 L 536.20 303.90 L 534.90 304.50 L 534.30 304.20 L 532.80 301.20 L 532.10 300.60 L 531.00 300.30 L 529.20 300.40 L 527.30 301.10 L 523.60 303.70 L 516.70 310.20 L 515.10 311.20 L 511.30 312.30 L 510.10 312.20 L 509.20 311.70 L 508.50 311.00 L 508.30 309.80 L 508.40 309.00 L 509.80 307.50 L 515.40 304.20 L 517.30 302.70 L 518.70 300.30 L 518.60 298.00 L 517.30 296.20 L 516.20 295.70 L 514.90 295.60 L 513.20 295.90 L 508.40 298.30 L 502.70 302.10 L 497.40 306.20 L 493.80 309.30 L 489.20 314.00 L 485.90 318.60 L 484.60 321.30 L 483.70 324.30 L 483.40 327.50 L 483.80 336.00 L 481.10 338.20 L 476.00 343.40 L 445.60 374.90 L 444.30 375.70 L 441.80 376.50 L 435.30 377.60 L 427.70 378.20 L 414.70 378.00 L 411.70 380.10 L 409.20 382.80 L 403.30 390.70 L 394.60 403.90 L 389.00 413.30 L 387.50 426.10 Z" fill="#ffd2cf" fill-rule="nonzero" group-id="5,26,78" id="路径_192" node-id="96" stroke="none" target-height="140.29999" target-width="166" target-x="387.5" target-y="295.6"></path><path d="M 226.10 413.00 L 234.90 413.90 L 238.60 415.50 L 243.80 420.60 L 251.20 427.30 L 290.40 460.60 L 291.00 462.90 L 291.50 473.40 L 377.00 469.10 L 397.50 418.90 L 420.50 376.70 L 345.30 370.10 L 351.00 443.10 L 347.10 444.20 L 300.40 373.10 L 273.70 386.30 L 244.30 401.60 L 232.70 408.30 L 226.10 413.00 Z" fill="#ffffff" fill-rule="nonzero" group-id="5,26,79" id="路径_193" node-id="97" stroke="none" target-height="103.29999" target-width="194.4" target-x="226.1" target-y="370.1"></path><path d="M 313.90 323.60 L 314.80 318.20 L 316.90 312.60 L 320.10 308.10 L 323.80 305.40 L 326.00 304.40 L 328.60 303.80 L 331.60 303.50 L 338.60 304.10 L 344.80 305.90 L 347.40 307.30 L 349.50 309.10 L 352.10 312.70 L 353.20 315.90 L 353.50 318.90 L 353.60 326.30 L 352.60 335.10 L 351.50 339.50 L 350.00 343.50 L 347.30 348.10 L 345.60 349.80 L 343.10 351.60 L 340.50 352.70 L 337.70 353.40 L 334.90 353.50 L 332.00 353.10 L 328.90 352.20 L 326.10 350.80 L 323.30 349.00 L 320.60 346.60 L 318.10 343.90 L 315.90 340.60 L 313.90 336.80 L 308.10 334.60 L 305.20 332.60 L 304.20 331.30 L 303.80 329.70 L 303.80 327.90 L 304.30 326.10 L 305.20 324.50 L 307.20 323.00 L 308.60 322.60 L 311.70 322.80 L 313.90 323.60 Z" fill="#ffd3d0" fill-rule="nonzero" group-id="5,26,80" id="路径_187" node-id="98" stroke="none" target-height="50" target-width="49.80002" target-x="303.8" target-y="303.5"></path><path d="M 307.90 369.90 L 311.80 374.20 L 316.20 377.50 L 318.80 378.90 L 321.80 380.00 L 326.10 380.50 L 328.40 380.20 L 331.10 379.40 L 333.20 378.40 L 334.60 377.20 L 335.90 375.70 L 337.20 372.60 L 337.60 370.30 L 337.50 366.70 L 345.50 369.60 L 350.90 443.40 L 347.00 444.00 L 300.10 373.20 Z" fill="#ffb4cf" fill-rule="nonzero" group-id="5,26,81" id="路径_190" node-id="99" stroke="none" target-height="77.29999" target-width="50.799988" target-x="300.1" target-y="366.7"></path><path d="M 366.20 313.70 L 373.00 337.80 L 377.20 355.80 L 378.10 357.40 L 379.40 358.80 L 381.80 360.70 L 391.00 366.20 L 393.90 368.40 L 396.30 371.00 L 397.90 373.60 L 399.40 377.00 L 400.50 380.70 L 401.10 384.70 L 401.00 390.30 L 399.70 395.70 L 398.40 398.20 L 396.80 400.60 L 394.70 402.60 L 392.20 404.50 L 389.00 406.10 L 385.30 407.30 L 381.90 408.00 L 378.60 408.20 L 375.50 407.90 L 372.50 407.10 L 369.70 405.90 L 366.90 404.20 L 364.20 402.00 L 361.40 399.10 L 358.60 395.60 L 356.70 387.50 L 355.60 384.30 L 354.00 380.70 L 351.90 377.10 L 349.00 373.60 L 346.80 371.50 L 341.00 367.70 L 341.30 365.80 L 342.70 363.30 L 344.30 361.80 L 350.40 357.70 L 352.70 354.90 L 353.80 353.00 L 357.70 342.20 L 365.30 315.40 L 366.00 313.60 L 366.20 313.70 Z" fill="#341054" fill-rule="nonzero" group-id="5,26,82" id="路径_194" node-id="100" stroke="none" target-height="94.600006" target-width="60.100006" target-x="341" target-y="313.6"></path><path d="M 740.40 818.60 L 695.50 854.10 L 771.20 855.40 L 771.20 848.80 L 774.60 848.80 L 774.60 855.40 L 798.10 855.40 L 791.50 813.00 Z" fill="#48070b" fill-rule="nonzero" group-id="6,27,83" id="路径_225" node-id="103" stroke="none" target-height="42.400024" target-width="102.599976" target-x="695.5" target-y="813"></path><g clip-path="url(#clip-path-5)" group-id="6,27,84" node-id="463"><path d="M 701.80 845.10 L 796.00 845.10 L 796.00 847.90 L 701.80 847.90 Z" fill="#310a05" fill-rule="nonzero" group-id="6,27,84,115" id="矩形_74" node-id="105" stroke="none" target-height="2.8000488" target-width="94.20001" target-x="701.8" target-y="845.1"></path></g><path d="M 896.20 818.60 L 941.10 854.10 L 865.40 855.40 L 865.40 848.80 L 862.00 848.80 L 862.00 855.40 L 838.50 855.40 L 845.10 813.00 Z" fill="#48070b" fill-rule="nonzero" group-id="6,28,85" id="路径_225-2" node-id="107" stroke="none" target-height="42.400024" target-width="102.599976" target-x="838.5" target-y="813"></path><g clip-path="url(#clip-path-6)" group-id="6,28,86" node-id="475"><path d="M 840.50 845.10 L 934.80 845.10 L 934.80 847.90 L 840.50 847.90 Z" fill="#310a05" fill-rule="nonzero" group-id="6,28,86,116" id="矩形_74-2" node-id="109" stroke="none" target-height="2.8000488" target-width="94.29999" target-x="840.5" target-y="845.1"></path></g><path d="M 747.60 492.00 L 708.10 819.00 L 812.30 819.00 L 820.80 602.70 L 820.80 819.00 L 924.90 828.00 L 880.40 492.00 Z" fill="#341054" fill-rule="nonzero" group-id="6,29" id="路径_219" node-id="110" stroke="none" target-height="336" target-width="216.80005" target-x="708.1" target-y="492"></path><path d="M 757.70 490.00 L 726.50 818.60 L 732.70 817.10 L 767.30 483.10 Z" fill="#deac4c" fill-rule="nonzero" group-id="6,30" id="路径_220" node-id="111" stroke="none" target-height="335.49997" target-width="40.799988" target-x="726.5" target-y="483.1"></path><path d="M 776.00 490.00 L 744.80 818.60 L 750.90 817.10 L 785.60 483.10 Z" fill="#deac4c" fill-rule="nonzero" group-id="6,31" id="路径_221" node-id="112" stroke="none" target-height="335.49997" target-width="40.799988" target-x="744.8" target-y="483.1"></path><path d="M 759.50 545.60 L 800.20 545.60 L 800.20 585.00 L 759.50 585.00 Z" fill="#ffd700" fill-rule="nonzero" group-id="6,32" id="矩形_73" node-id="113" stroke="none" target-height="39.400024" target-width="40.700012" target-x="759.5" target-y="545.6"></path><path d="M 876.20 567.40 L 875.90 570.60 L 875.10 573.50 L 873.80 576.20 L 872.00 578.70 L 869.90 580.80 L 867.50 582.60 L 864.80 583.90 L 861.80 584.70 L 858.60 585.00 L 855.40 584.70 L 852.50 583.90 L 849.70 582.60 L 847.30 580.80 L 845.20 578.70 L 843.40 576.20 L 842.10 573.50 L 841.30 570.60 L 841.00 567.40 L 841.30 564.20 L 842.10 561.20 L 843.40 558.50 L 845.20 556.00 L 847.30 553.90 L 849.70 552.20 L 852.50 550.90 L 855.40 550.10 L 858.60 549.80 L 861.80 550.10 L 864.80 550.90 L 867.50 552.20 L 869.90 553.90 L 872.00 556.00 L 873.80 558.50 L 875.10 561.20 L 875.90 564.20 L 876.20 567.40 Z" fill="#d80000" fill-rule="nonzero" group-id="6,33" id="椭圆_48" node-id="114" stroke="none" target-height="35.200012" target-width="35.200012" target-x="841" target-y="549.8"></path><path d="M 765.20 681.80 L 788.10 672.60 L 799.30 706.90 L 781.60 721.50 Z" fill="#0033b5" fill-rule="nonzero" group-id="6,34" id="路径_222" node-id="115" stroke="none" target-height="48.900024" target-width="34.099976" target-x="765.2" target-y="672.6"></path><path d="M 837.40 626.40 L 862.90 619.40 L 859.40 675.30 L 834.00 679.10 Z" fill="#0033b5" fill-rule="nonzero" group-id="6,35" id="路径_223" node-id="116" stroke="none" target-height="59.69995" target-width="28.900024" target-x="834" target-y="619.4"></path><path d="M 719.20 723.40 L 708.80 819.00 L 811.70 819.00 L 813.30 790.90 Z" fill="#d70000" fill-rule="nonzero" group-id="6,36" id="路径_224" node-id="117" stroke="none" target-height="95.599976" target-width="104.5" target-x="708.8" target-y="723.4"></path><path d="M 801.20 310.40 L 801.70 317.50 L 801.30 323.50 L 800.70 326.30 L 797.40 333.90 L 795.60 340.70 L 801.90 347.90 L 823.90 346.00 L 824.70 335.60 L 823.30 316.30 L 825.10 306.50 L 807.90 310.20 Z" fill="#f0bbbb" fill-rule="nonzero" group-id="7,37" id="路径_206" node-id="119" stroke="none" target-height="41.399994" target-width="29.5" target-x="795.6" target-y="306.5"></path><path d="M 793.00 272.50 L 792.20 288.80 L 792.40 297.40 L 793.40 305.20 L 794.30 308.40 L 795.50 310.50 L 796.70 311.80 L 798.20 312.80 L 800.00 313.50 L 802.90 314.00 L 806.30 314.00 L 809.70 313.60 L 813.00 312.90 L 819.10 310.90 L 823.30 308.80 L 827.70 305.40 L 836.90 296.90 L 838.60 294.90 L 838.50 292.00 L 837.30 290.20 L 836.10 289.70 L 834.20 289.30 L 833.00 280.60 Z" fill="#ffd2cf" fill-rule="nonzero" group-id="7,38" id="路径_204" node-id="120" stroke="none" target-height="41.5" target-width="46.399963" target-x="792.2" target-y="272.5"></path><path d="M 784.10 273.00 L 782.50 247.40 L 852.40 271.30 L 829.80 319.50 L 823.30 316.80 L 824.90 307.20 L 835.10 298.60 L 836.40 295.90 L 836.80 292.10 L 835.90 290.10 L 835.10 289.50 L 832.50 288.90 L 829.80 289.50 L 830.50 280.90 Z" fill="#310d52" fill-rule="nonzero" group-id="7,39" id="路径_205" node-id="121" stroke="none" target-height="72.100006" target-width="69.900024" target-x="782.5" target-y="247.4"></path><path d="M 801.40 325.80 L 799.10 331.00 L 798.40 333.30 L 797.90 335.60 L 797.90 337.90 L 798.40 339.80 L 799.40 341.40 L 801.80 344.00 L 804.10 345.30 L 806.60 346.00 L 808.40 346.10 L 811.90 345.40 L 814.00 344.40 L 816.30 342.60 L 818.40 340.40 L 822.20 335.00 L 823.60 331.90 L 824.60 328.70 L 825.10 325.60 L 832.30 325.30 L 835.10 368.20 L 831.00 382.10 L 814.70 430.50 L 803.20 412.10 L 793.90 395.30 L 788.70 384.10 L 786.90 379.10 L 785.50 372.20 L 785.30 368.50 L 785.50 362.70 L 786.30 356.90 L 787.50 351.10 L 790.40 340.40 L 794.70 329.30 L 796.00 326.70 L 801.40 325.80 Z" fill="none" group-id="8,40" id="路径_207" node-id="123" stroke="none" target-height="105.20001" target-width="49.799988" target-x="785.3" target-y="325.3"></path><path d="M 795.90 326.50 L 735.90 344.70 L 732.70 345.80 L 729.70 347.30 L 727.00 349.10 L 724.50 351.20 L 722.20 353.60 L 720.30 356.30 L 718.80 359.20 L 717.50 362.40 L 700.90 413.70 L 643.00 392.20 L 623.70 449.20 L 727.20 488.40 L 750.20 447.60 L 751.30 463.50 L 751.10 470.90 L 750.80 474.20 L 750.20 476.40 L 747.80 481.40 L 741.50 491.60 L 766.50 497.80 L 781.20 500.80 L 796.20 503.20 L 803.50 504.00 L 881.70 506.00 L 914.90 492.90 L 978.70 420.60 L 915.60 349.10 L 909.70 345.70 L 904.80 343.30 L 899.30 340.90 L 887.20 337.00 L 881.60 335.70 L 860.60 332.00 L 845.80 328.90 L 831.20 325.30 L 833.00 370.50 L 814.70 429.40 L 802.80 409.30 L 796.40 397.40 L 790.60 385.30 L 788.20 379.40 L 785.50 371.00 L 784.90 366.10 L 785.40 361.50 L 786.30 356.20 L 789.00 345.70 L 792.20 336.10 L 795.90 326.50 Z" fill="#ffffff" fill-rule="nonzero" group-id="8,41" id="路径_210" node-id="124" stroke="none" target-height="180.70001" target-width="355" target-x="623.7" target-y="325.3"></path><g clip-path="url(#clip-path-7)" group-id="8,42" id="蒙版组_12" node-id="125"><path d="M 715.70 446.10 L 747.10 455.20 L 727.40 489.90 L 693.30 477.10 Z" fill="#ffd400" fill-rule="nonzero" group-id="8,42,87" id="路径_215" node-id="126" stroke="none" target-height="43.799988" target-width="53.799988" target-x="693.3" target-y="446.1"></path><path d="M 752.20 436.40 L 784.60 436.40 L 783.70 447.80 L 782.30 459.10 L 780.00 471.60 L 778.40 477.80 L 776.50 483.40 L 775.00 487.00 L 771.80 492.50 L 767.30 492.50 L 759.80 491.70 L 742.30 489.20 L 748.00 439.20 Z" fill="#e83131" fill-rule="nonzero" group-id="8,42,88" id="路径_216" node-id="127" stroke="none" target-height="56.100006" target-width="42.299988" target-x="742.3" target-y="436.4"></path><path d="M 827.90 449.20 L 864.20 446.60 L 866.00 498.30 L 824.20 500.40 Z" fill="#ffd400" fill-rule="nonzero" group-id="8,42,89" id="路径_217" node-id="128" stroke="none" target-height="53.799988" target-width="41.799988" target-x="824.2" target-y="446.6"></path><path d="M 963.40 383.10 L 963.20 386.20 L 961.60 391.60 L 960.30 394.10 L 958.10 397.20 L 955.40 399.80 L 952.20 402.00 L 949.60 403.20 L 944.00 404.70 L 940.90 404.90 L 937.80 404.70 L 932.10 403.20 L 929.50 402.00 L 926.40 399.80 L 923.70 397.20 L 921.40 394.10 L 920.10 391.60 L 918.60 386.20 L 918.40 383.10 L 918.60 380.10 L 920.10 374.70 L 921.40 372.10 L 923.70 369.10 L 926.40 366.50 L 929.50 364.30 L 932.10 363.10 L 937.80 361.60 L 940.90 361.30 L 944.00 361.60 L 949.60 363.10 L 952.20 364.30 L 955.40 366.50 L 958.10 369.10 L 960.30 372.10 L 961.60 374.70 L 963.20 380.10 L 963.40 383.10 Z" fill="#8198d0" fill-rule="nonzero" group-id="8,42,90" id="椭圆_47" node-id="129" stroke="none" target-height="43.600006" target-width="45" target-x="918.4" target-y="361.3"></path></g><path d="M 638.50 396.60 L 629.50 391.70 L 620.40 387.20 L 610.00 382.70 L 599.70 379.50 L 584.60 375.90 L 582.00 375.70 L 580.80 376.50 L 580.50 377.60 L 580.50 379.40 L 581.50 383.20 L 582.40 385.10 L 584.10 387.30 L 577.60 386.30 L 575.90 387.30 L 574.80 389.40 L 574.60 390.70 L 575.20 396.90 L 574.90 397.80 L 574.10 398.40 L 570.90 399.50 L 570.10 400.20 L 569.40 401.60 L 569.10 403.60 L 569.50 406.60 L 571.20 410.50 L 571.40 411.50 L 571.10 412.50 L 568.10 416.80 L 567.70 418.10 L 567.50 422.10 L 566.20 429.10 L 567.10 431.70 L 569.60 435.90 L 570.90 438.00 L 573.20 440.50 L 575.10 441.20 L 576.70 441.00 L 578.30 440.30 L 580.50 438.20 L 581.00 437.10 L 580.70 435.70 L 581.50 434.70 L 584.90 433.80 L 587.00 433.70 L 589.20 434.20 L 600.60 438.50 L 604.60 439.70 L 609.10 440.60 L 613.80 441.20 L 618.90 441.20 L 622.00 440.30 L 625.10 437.70 L 628.50 432.70 L 630.00 429.40 L 632.10 424.20 L 635.30 413.10 L 638.50 396.60 Z" fill="#ffd2cf" fill-rule="nonzero" group-id="8,43" id="路径_208" node-id="130" stroke="none" target-height="65.5" target-width="72.29999" target-x="566.2" target-y="375.7"></path><path d="M 881.20 465.50 L 846.20 478.60 L 843.10 480.30 L 841.10 481.90 L 840.10 483.20 L 839.60 484.50 L 839.60 485.80 L 840.60 487.10 L 841.90 487.60 L 846.70 488.40 L 852.30 488.60 L 858.90 488.20 L 853.10 493.40 L 847.10 497.50 L 843.70 499.30 L 835.70 501.90 L 833.00 503.20 L 830.80 504.80 L 829.60 506.20 L 828.90 507.70 L 828.70 510.10 L 829.10 511.80 L 831.00 515.40 L 832.60 517.00 L 834.80 518.20 L 838.30 518.70 L 840.70 518.40 L 842.90 523.80 L 845.10 526.10 L 848.00 527.20 L 850.50 527.50 L 854.80 526.80 L 856.20 526.20 L 857.50 525.20 L 858.90 529.00 L 859.80 530.50 L 861.00 531.90 L 863.10 533.00 L 864.40 533.10 L 866.60 532.80 L 868.70 531.90 L 870.50 530.50 L 872.40 528.10 L 872.70 528.30 L 874.80 532.60 L 875.70 533.40 L 877.00 533.80 L 880.00 532.90 L 885.60 529.10 L 889.40 525.70 L 897.10 517.50 L 901.70 511.00 L 906.40 503.30 L 914.60 488.20 Z" fill="#ffd2cf" fill-rule="nonzero" group-id="8,44" id="路径_209" node-id="131" stroke="none" target-height="68.29999" target-width="85.89996" target-x="828.7" target-y="465.5"></path><path d="M 736.10 381.10 L 747.50 452.60 L 757.30 437.60 Z" fill="#d0d0d0" fill-rule="nonzero" group-id="8,45" id="路径_211" node-id="132" stroke="none" target-height="71.5" target-width="21.200012" target-x="736.1" target-y="381.1"></path><path d="M 873.50 403.50 L 907.00 416.30 L 884.90 454.50 L 897.70 422.40 Z" fill="#d0d0d0" fill-rule="nonzero" group-id="8,46" id="路径_212" node-id="133" stroke="none" target-height="51" target-width="33.5" target-x="873.5" target-y="403.5"></path><path d="M 637.10 387.00 L 651.90 392.10 L 630.80 456.10 L 614.30 451.90 Z" fill="#ff0101" fill-rule="nonzero" group-id="8,47" id="路径_213" node-id="134" stroke="none" target-height="69.100006" target-width="37.600037" target-x="614.3" target-y="387"></path><path d="M 883.30 455.70 L 876.50 465.40 L 914.80 493.70 L 923.00 484.30 Z" fill="#ff0101" fill-rule="nonzero" group-id="8,48" id="路径_214" node-id="135" stroke="none" target-height="38" target-width="46.5" target-x="876.5" target-y="455.7"></path></g></svg>